<svg width="750" height="750" viewBox="0 0 750 750" fill="none" xmlns="http://www.w3.org/2000/svg">
<rect x="295.721" y="269.497" width="27.3375" height="41.0062" rx="13.6687" fill="#E7000B"/>
<rect x="328.526" y="242.159" width="27.3375" height="95.6813" rx="13.6687" fill="white"/>
<rect x="361.331" y="262.662" width="27.3375" height="54.675" rx="13.6687" fill="#E7000B"/>
<rect x="394.136" y="242.159" width="27.3375" height="95.6813" rx="13.6687" fill="#FFB900"/>
<rect x="426.941" y="269.497" width="27.3375" height="41.0062" rx="13.6687" fill="white"/>
<path d="M60.1791 477.841V413.281H78.0591V431.521L75.5391 426.241C77.4591 421.681 80.5391 418.241 84.7791 415.921C89.0191 413.521 94.1791 412.321 100.259 412.321V429.601C99.4591 429.521 98.7391 429.481 98.0991 429.481C97.4591 429.401 96.7791 429.361 96.0591 429.361C90.9391 429.361 86.7791 430.841 83.5791 433.801C80.4591 436.681 78.8991 441.201 78.8991 447.361V477.841H60.1791ZM148.961 478.801C141.601 478.801 135.121 477.361 129.521 474.481C124.001 471.601 119.721 467.681 116.681 462.721C113.641 457.681 112.121 451.961 112.121 445.561C112.121 439.081 113.601 433.361 116.561 428.401C119.601 423.361 123.721 419.441 128.921 416.641C134.121 413.761 140.001 412.321 146.561 412.321C152.881 412.321 158.561 413.681 163.601 416.401C168.721 419.041 172.761 422.881 175.721 427.921C178.681 432.881 180.161 438.841 180.161 445.801C180.161 446.521 180.121 447.361 180.041 448.321C179.961 449.201 179.881 450.041 179.801 450.841H127.361V439.921H169.961L162.761 443.161C162.761 439.801 162.081 436.881 160.721 434.401C159.361 431.921 157.481 430.001 155.081 428.641C152.681 427.201 149.881 426.481 146.681 426.481C143.481 426.481 140.641 427.201 138.161 428.641C135.761 430.001 133.881 431.961 132.521 434.521C131.161 437.001 130.481 439.961 130.481 443.401V446.281C130.481 449.801 131.241 452.921 132.761 455.641C134.361 458.281 136.561 460.321 139.361 461.761C142.241 463.121 145.601 463.801 149.441 463.801C152.881 463.801 155.881 463.281 158.441 462.241C161.081 461.201 163.481 459.641 165.641 457.561L175.601 468.361C172.641 471.721 168.921 474.321 164.441 476.161C159.961 477.921 154.801 478.801 148.961 478.801ZM229.824 478.801C222.864 478.801 216.664 477.401 211.224 474.601C205.784 471.721 201.504 467.761 198.384 462.721C195.344 457.681 193.824 451.961 193.824 445.561C193.824 439.081 195.344 433.361 198.384 428.401C201.504 423.361 205.784 419.441 211.224 416.641C216.664 413.761 222.864 412.321 229.824 412.321C236.624 412.321 242.544 413.761 247.584 416.641C252.624 419.441 256.344 423.481 258.744 428.761L244.224 436.561C242.544 433.521 240.424 431.281 237.864 429.841C235.384 428.401 232.664 427.681 229.704 427.681C226.504 427.681 223.624 428.401 221.064 429.841C218.504 431.281 216.464 433.321 214.944 435.961C213.504 438.601 212.784 441.801 212.784 445.561C212.784 449.321 213.504 452.521 214.944 455.161C216.464 457.801 218.504 459.841 221.064 461.281C223.624 462.721 226.504 463.441 229.704 463.441C232.664 463.441 235.384 462.761 237.864 461.401C240.424 459.961 242.544 457.681 244.224 454.561L258.744 462.481C256.344 467.681 252.624 471.721 247.584 474.601C242.544 477.401 236.624 478.801 229.824 478.801ZM305.423 478.801C298.543 478.801 292.423 477.361 287.063 474.481C281.783 471.601 277.583 467.681 274.463 462.721C271.423 457.681 269.903 451.961 269.903 445.561C269.903 439.081 271.423 433.361 274.463 428.401C277.583 423.361 281.783 419.441 287.063 416.641C292.423 413.761 298.543 412.321 305.423 412.321C312.223 412.321 318.303 413.761 323.663 416.641C329.023 419.441 333.223 423.321 336.263 428.281C339.303 433.241 340.823 439.001 340.823 445.561C340.823 451.961 339.303 457.681 336.263 462.721C333.223 467.681 329.023 471.601 323.663 474.481C318.303 477.361 312.223 478.801 305.423 478.801ZM305.423 463.441C308.543 463.441 311.343 462.721 313.823 461.281C316.303 459.841 318.263 457.801 319.703 455.161C321.143 452.441 321.863 449.241 321.863 445.561C321.863 441.801 321.143 438.601 319.703 435.961C318.263 433.321 316.303 431.281 313.823 429.841C311.343 428.401 308.543 427.681 305.423 427.681C302.303 427.681 299.503 428.401 297.023 429.841C294.543 431.281 292.543 433.321 291.023 435.961C289.583 438.601 288.863 441.801 288.863 445.561C288.863 449.241 289.583 452.441 291.023 455.161C292.543 457.801 294.543 459.841 297.023 461.281C299.503 462.721 302.303 463.441 305.423 463.441ZM442.015 412.321C447.135 412.321 451.655 413.361 455.575 415.441C459.575 417.441 462.695 420.561 464.935 424.801C467.255 428.961 468.415 434.321 468.415 440.881V477.841H449.695V443.761C449.695 438.561 448.615 434.721 446.455 432.241C444.295 429.761 441.255 428.521 437.335 428.521C434.615 428.521 432.175 429.161 430.015 430.441C427.855 431.641 426.175 433.481 424.975 435.961C423.775 438.441 423.175 441.601 423.175 445.441V477.841H404.455V443.761C404.455 438.561 403.375 434.721 401.215 432.241C399.135 429.761 396.135 428.521 392.215 428.521C389.495 428.521 387.055 429.161 384.895 430.441C382.735 431.641 381.055 433.481 379.855 435.961C378.655 438.441 378.055 441.601 378.055 445.441V477.841H359.335V413.281H377.215V430.921L373.855 425.761C376.095 421.361 379.255 418.041 383.335 415.801C387.495 413.481 392.215 412.321 397.495 412.321C403.415 412.321 408.575 413.841 412.975 416.881C417.455 419.841 420.415 424.401 421.855 430.561L415.255 428.761C417.415 423.721 420.855 419.721 425.575 416.761C430.375 413.801 435.855 412.321 442.015 412.321ZM529.355 478.801C523.915 478.801 519.155 477.601 515.075 475.201C510.995 472.801 507.795 469.161 505.475 464.281C503.235 459.321 502.115 453.081 502.115 445.561C502.115 437.961 503.195 431.721 505.355 426.841C507.515 421.961 510.635 418.321 514.715 415.921C518.795 413.521 523.675 412.321 529.355 412.321C535.435 412.321 540.875 413.721 545.675 416.521C550.555 419.241 554.395 423.081 557.195 428.041C560.075 433.001 561.515 438.841 561.515 445.561C561.515 452.361 560.075 458.241 557.195 463.201C554.395 468.161 550.555 472.001 545.675 474.721C540.875 477.441 535.435 478.801 529.355 478.801ZM491.195 501.121V413.281H509.075V426.481L508.715 445.681L509.915 464.761V501.121H491.195ZM526.115 463.441C529.235 463.441 531.995 462.721 534.395 461.281C536.875 459.841 538.835 457.801 540.275 455.161C541.795 452.441 542.555 449.241 542.555 445.561C542.555 441.801 541.795 438.601 540.275 435.961C538.835 433.321 536.875 431.281 534.395 429.841C531.995 428.401 529.235 427.681 526.115 427.681C522.995 427.681 520.195 428.401 517.715 429.841C515.235 431.281 513.275 433.321 511.835 435.961C510.395 438.601 509.675 441.801 509.675 445.561C509.675 449.241 510.395 452.441 511.835 455.161C513.275 457.801 515.235 459.841 517.715 461.281C520.195 462.721 522.995 463.441 526.115 463.441ZM580.046 477.841V413.281H597.926V431.521L595.406 426.241C597.326 421.681 600.406 418.241 604.646 415.921C608.886 413.521 614.046 412.321 620.126 412.321V429.601C619.326 429.521 618.606 429.481 617.966 429.481C617.326 429.401 616.646 429.361 615.926 429.361C610.806 429.361 606.646 430.841 603.446 433.801C600.326 436.681 598.766 441.201 598.766 447.361V477.841H580.046ZM672.638 477.841V465.241L671.438 462.481V439.921C671.438 435.921 670.198 432.801 667.718 430.561C665.318 428.321 661.598 427.201 656.558 427.201C653.118 427.201 649.718 427.761 646.358 428.881C643.078 429.921 640.278 431.361 637.958 433.201L631.238 420.121C634.758 417.641 638.998 415.721 643.958 414.361C648.918 413.001 653.958 412.321 659.078 412.321C668.918 412.321 676.558 414.641 681.998 419.281C687.438 423.921 690.158 431.161 690.158 441.001V477.841H672.638ZM652.958 478.801C647.918 478.801 643.598 477.961 639.998 476.281C636.398 474.521 633.638 472.161 631.718 469.201C629.798 466.241 628.838 462.921 628.838 459.241C628.838 455.401 629.758 452.041 631.598 449.161C633.518 446.281 636.518 444.041 640.598 442.441C644.678 440.761 649.998 439.921 656.558 439.921H673.718V450.841H658.598C654.198 450.841 651.158 451.561 649.478 453.001C647.878 454.441 647.078 456.241 647.078 458.401C647.078 460.801 647.998 462.721 649.838 464.161C651.758 465.521 654.358 466.201 657.638 466.201C660.758 466.201 663.558 465.481 666.038 464.041C668.518 462.521 670.318 460.321 671.438 457.441L674.318 466.081C672.958 470.241 670.478 473.401 666.878 475.561C663.278 477.721 658.638 478.801 652.958 478.801Z" fill="white"/>
</svg>
