<svg width="1000" height="500" viewBox="0 0 1000 500" fill="none" xmlns="http://www.w3.org/2000/svg">
<rect x="74.1562" y="229.497" width="27.3375" height="41.0062" rx="13.6687" fill="#E7000B"/>
<rect x="106.494" y="202.159" width="27.3375" height="95.6813" rx="13.6687" fill="white"/>
<rect x="138.831" y="222.662" width="27.3375" height="54.675" rx="13.6687" fill="#E7000B"/>
<rect x="171.169" y="202.159" width="27.3375" height="95.6813" rx="13.6687" fill="#FFB900"/>
<rect x="203.506" y="229.497" width="27.3375" height="41.0062" rx="13.6687" fill="white"/>
<path d="M287.523 293V228.44H305.403V246.68L302.883 241.4C304.803 236.84 307.883 233.4 312.123 231.08C316.363 228.68 321.523 227.48 327.603 227.48V244.76C326.803 244.68 326.083 244.64 325.443 244.64C324.803 244.56 324.123 244.52 323.403 244.52C318.283 244.52 314.123 246 310.923 248.96C307.803 251.84 306.243 256.36 306.243 262.52V293H287.523ZM376.305 293.96C368.945 293.96 362.465 292.52 356.865 289.64C351.345 286.76 347.065 282.84 344.025 277.88C340.985 272.84 339.465 267.12 339.465 260.72C339.465 254.24 340.945 248.52 343.905 243.56C346.945 238.52 351.065 234.6 356.265 231.8C361.465 228.92 367.345 227.48 373.905 227.48C380.225 227.48 385.905 228.84 390.945 231.56C396.065 234.2 400.105 238.04 403.065 243.08C406.025 248.04 407.505 254 407.505 260.96C407.505 261.68 407.465 262.52 407.385 263.48C407.305 264.36 407.225 265.2 407.145 266H354.705V255.08H397.305L390.105 258.32C390.105 254.96 389.425 252.04 388.065 249.56C386.705 247.08 384.825 245.16 382.425 243.8C380.025 242.36 377.225 241.64 374.025 241.64C370.825 241.64 367.985 242.36 365.505 243.8C363.105 245.16 361.225 247.12 359.865 249.68C358.505 252.16 357.825 255.12 357.825 258.56V261.44C357.825 264.96 358.585 268.08 360.105 270.8C361.705 273.44 363.905 275.48 366.705 276.92C369.585 278.28 372.945 278.96 376.785 278.96C380.225 278.96 383.225 278.44 385.785 277.4C388.425 276.36 390.825 274.8 392.985 272.72L402.945 283.52C399.985 286.88 396.265 289.48 391.785 291.32C387.305 293.08 382.145 293.96 376.305 293.96ZM457.168 293.96C450.208 293.96 444.008 292.56 438.568 289.76C433.128 286.88 428.848 282.92 425.728 277.88C422.688 272.84 421.168 267.12 421.168 260.72C421.168 254.24 422.688 248.52 425.728 243.56C428.848 238.52 433.128 234.6 438.568 231.8C444.008 228.92 450.208 227.48 457.168 227.48C463.968 227.48 469.888 228.92 474.928 231.8C479.968 234.6 483.688 238.64 486.088 243.92L471.568 251.72C469.888 248.68 467.768 246.44 465.208 245C462.728 243.56 460.008 242.84 457.048 242.84C453.848 242.84 450.968 243.56 448.408 245C445.848 246.44 443.808 248.48 442.288 251.12C440.848 253.76 440.128 256.96 440.128 260.72C440.128 264.48 440.848 267.68 442.288 270.32C443.808 272.96 445.848 275 448.408 276.44C450.968 277.88 453.848 278.6 457.048 278.6C460.008 278.6 462.728 277.92 465.208 276.56C467.768 275.12 469.888 272.84 471.568 269.72L486.088 277.64C483.688 282.84 479.968 286.88 474.928 289.76C469.888 292.56 463.968 293.96 457.168 293.96ZM532.766 293.96C525.886 293.96 519.766 292.52 514.406 289.64C509.126 286.76 504.926 282.84 501.806 277.88C498.766 272.84 497.246 267.12 497.246 260.72C497.246 254.24 498.766 248.52 501.806 243.56C504.926 238.52 509.126 234.6 514.406 231.8C519.766 228.92 525.886 227.48 532.766 227.48C539.566 227.48 545.646 228.92 551.006 231.8C556.366 234.6 560.566 238.48 563.606 243.44C566.646 248.4 568.166 254.16 568.166 260.72C568.166 267.12 566.646 272.84 563.606 277.88C560.566 282.84 556.366 286.76 551.006 289.64C545.646 292.52 539.566 293.96 532.766 293.96ZM532.766 278.6C535.886 278.6 538.686 277.88 541.166 276.44C543.646 275 545.606 272.96 547.046 270.32C548.486 267.6 549.206 264.4 549.206 260.72C549.206 256.96 548.486 253.76 547.046 251.12C545.606 248.48 543.646 246.44 541.166 245C538.686 243.56 535.886 242.84 532.766 242.84C529.646 242.84 526.846 243.56 524.366 245C521.886 246.44 519.886 248.48 518.366 251.12C516.926 253.76 516.206 256.96 516.206 260.72C516.206 264.4 516.926 267.6 518.366 270.32C519.886 272.96 521.886 275 524.366 276.44C526.846 277.88 529.646 278.6 532.766 278.6ZM669.359 227.48C674.479 227.48 678.999 228.52 682.919 230.6C686.919 232.6 690.039 235.72 692.279 239.96C694.599 244.12 695.759 249.48 695.759 256.04V293H677.039V258.92C677.039 253.72 675.959 249.88 673.799 247.4C671.639 244.92 668.599 243.68 664.679 243.68C661.959 243.68 659.519 244.32 657.359 245.6C655.199 246.8 653.519 248.64 652.319 251.12C651.119 253.6 650.519 256.76 650.519 260.6V293H631.799V258.92C631.799 253.72 630.719 249.88 628.559 247.4C626.479 244.92 623.479 243.68 619.559 243.68C616.839 243.68 614.399 244.32 612.239 245.6C610.079 246.8 608.399 248.64 607.199 251.12C605.999 253.6 605.399 256.76 605.399 260.6V293H586.679V228.44H604.559V246.08L601.199 240.92C603.439 236.52 606.599 233.2 610.679 230.96C614.839 228.64 619.559 227.48 624.839 227.48C630.759 227.48 635.919 229 640.319 232.04C644.799 235 647.759 239.56 649.199 245.72L642.599 243.92C644.759 238.88 648.199 234.88 652.919 231.92C657.719 228.96 663.199 227.48 669.359 227.48ZM756.698 293.96C751.258 293.96 746.498 292.76 742.418 290.36C738.338 287.96 735.138 284.32 732.818 279.44C730.578 274.48 729.458 268.24 729.458 260.72C729.458 253.12 730.538 246.88 732.698 242C734.858 237.12 737.978 233.48 742.058 231.08C746.138 228.68 751.018 227.48 756.698 227.48C762.778 227.48 768.218 228.88 773.018 231.68C777.898 234.4 781.738 238.24 784.538 243.2C787.418 248.16 788.858 254 788.858 260.72C788.858 267.52 787.418 273.4 784.538 278.36C781.738 283.32 777.898 287.16 773.018 289.88C768.218 292.6 762.778 293.96 756.698 293.96ZM718.538 316.28V228.44H736.418V241.64L736.058 260.84L737.258 279.92V316.28H718.538ZM753.458 278.6C756.578 278.6 759.338 277.88 761.738 276.44C764.218 275 766.178 272.96 767.618 270.32C769.138 267.6 769.898 264.4 769.898 260.72C769.898 256.96 769.138 253.76 767.618 251.12C766.178 248.48 764.218 246.44 761.738 245C759.338 243.56 756.578 242.84 753.458 242.84C750.338 242.84 747.538 243.56 745.058 245C742.578 246.44 740.618 248.48 739.178 251.12C737.738 253.76 737.018 256.96 737.018 260.72C737.018 264.4 737.738 267.6 739.178 270.32C740.618 272.96 742.578 275 745.058 276.44C747.538 277.88 750.338 278.6 753.458 278.6ZM807.39 293V228.44H825.27V246.68L822.75 241.4C824.67 236.84 827.75 233.4 831.99 231.08C836.23 228.68 841.39 227.48 847.47 227.48V244.76C846.67 244.68 845.95 244.64 845.31 244.64C844.67 244.56 843.99 244.52 843.27 244.52C838.15 244.52 833.99 246 830.79 248.96C827.67 251.84 826.11 256.36 826.11 262.52V293H807.39ZM899.982 293V280.4L898.782 277.64V255.08C898.782 251.08 897.542 247.96 895.062 245.72C892.662 243.48 888.942 242.36 883.902 242.36C880.462 242.36 877.062 242.92 873.702 244.04C870.422 245.08 867.622 246.52 865.302 248.36L858.582 235.28C862.102 232.8 866.342 230.88 871.302 229.52C876.262 228.16 881.302 227.48 886.422 227.48C896.262 227.48 903.902 229.8 909.342 234.44C914.782 239.08 917.502 246.32 917.502 256.16V293H899.982ZM880.302 293.96C875.262 293.96 870.942 293.12 867.342 291.44C863.742 289.68 860.982 287.32 859.062 284.36C857.142 281.4 856.182 278.08 856.182 274.4C856.182 270.56 857.102 267.2 858.942 264.32C860.862 261.44 863.862 259.2 867.942 257.6C872.022 255.92 877.342 255.08 883.902 255.08H901.062V266H885.942C881.542 266 878.502 266.72 876.822 268.16C875.222 269.6 874.422 271.4 874.422 273.56C874.422 275.96 875.342 277.88 877.182 279.32C879.102 280.68 881.702 281.36 884.982 281.36C888.102 281.36 890.902 280.64 893.382 279.2C895.862 277.68 897.662 275.48 898.782 272.6L901.662 281.24C900.302 285.4 897.822 288.56 894.222 290.72C890.622 292.88 885.982 293.96 880.302 293.96Z" fill="white"/>
</svg>
