<svg width="1000" height="500" viewBox="0 0 1000 500" fill="none" xmlns="http://www.w3.org/2000/svg">
<rect x="73.2212" y="229.497" width="27.3375" height="41.0062" rx="13.6687" fill="black"/>
<rect x="106.026" y="202.159" width="27.3375" height="95.6813" rx="13.6687" fill="black"/>
<rect x="138.831" y="222.662" width="27.3375" height="54.675" rx="13.6687" fill="black"/>
<rect x="171.636" y="202.159" width="27.3375" height="95.6813" rx="13.6687" fill="black"/>
<rect x="204.441" y="229.497" width="27.3375" height="41.0062" rx="13.6687" fill="black"/>
<path d="M288.458 293V228.44H306.338V246.68L303.818 241.4C305.738 236.84 308.818 233.4 313.058 231.08C317.298 228.68 322.458 227.48 328.538 227.48V244.76C327.738 244.68 327.018 244.64 326.378 244.64C325.738 244.56 325.058 244.52 324.338 244.52C319.218 244.52 315.058 246 311.858 248.96C308.738 251.84 307.178 256.36 307.178 262.52V293H288.458ZM377.24 293.96C369.88 293.96 363.4 292.52 357.8 289.64C352.28 286.76 348 282.84 344.96 277.88C341.92 272.84 340.4 267.12 340.4 260.72C340.4 254.24 341.88 248.52 344.84 243.56C347.88 238.52 352 234.6 357.2 231.8C362.4 228.92 368.28 227.48 374.84 227.48C381.16 227.48 386.84 228.84 391.88 231.56C397 234.2 401.04 238.04 404 243.08C406.96 248.04 408.44 254 408.44 260.96C408.44 261.68 408.4 262.52 408.32 263.48C408.24 264.36 408.16 265.2 408.08 266H355.64V255.08H398.24L391.04 258.32C391.04 254.96 390.36 252.04 389 249.56C387.64 247.08 385.76 245.16 383.36 243.8C380.96 242.36 378.16 241.64 374.96 241.64C371.76 241.64 368.92 242.36 366.44 243.8C364.04 245.16 362.16 247.12 360.8 249.68C359.44 252.16 358.76 255.12 358.76 258.56V261.44C358.76 264.96 359.52 268.08 361.04 270.8C362.64 273.44 364.84 275.48 367.64 276.92C370.52 278.28 373.88 278.96 377.72 278.96C381.16 278.96 384.16 278.44 386.72 277.4C389.36 276.36 391.76 274.8 393.92 272.72L403.88 283.52C400.92 286.88 397.2 289.48 392.72 291.32C388.24 293.08 383.08 293.96 377.24 293.96ZM458.103 293.96C451.143 293.96 444.943 292.56 439.503 289.76C434.063 286.88 429.783 282.92 426.663 277.88C423.623 272.84 422.103 267.12 422.103 260.72C422.103 254.24 423.623 248.52 426.663 243.56C429.783 238.52 434.063 234.6 439.503 231.8C444.943 228.92 451.143 227.48 458.103 227.48C464.903 227.48 470.823 228.92 475.863 231.8C480.903 234.6 484.623 238.64 487.023 243.92L472.503 251.72C470.823 248.68 468.703 246.44 466.143 245C463.663 243.56 460.943 242.84 457.983 242.84C454.783 242.84 451.903 243.56 449.343 245C446.783 246.44 444.743 248.48 443.223 251.12C441.783 253.76 441.063 256.96 441.063 260.72C441.063 264.48 441.783 267.68 443.223 270.32C444.743 272.96 446.783 275 449.343 276.44C451.903 277.88 454.783 278.6 457.983 278.6C460.943 278.6 463.663 277.92 466.143 276.56C468.703 275.12 470.823 272.84 472.503 269.72L487.023 277.64C484.623 282.84 480.903 286.88 475.863 289.76C470.823 292.56 464.903 293.96 458.103 293.96ZM533.701 293.96C526.821 293.96 520.701 292.52 515.341 289.64C510.061 286.76 505.861 282.84 502.741 277.88C499.701 272.84 498.181 267.12 498.181 260.72C498.181 254.24 499.701 248.52 502.741 243.56C505.861 238.52 510.061 234.6 515.341 231.8C520.701 228.92 526.821 227.48 533.701 227.48C540.501 227.48 546.581 228.92 551.941 231.8C557.301 234.6 561.501 238.48 564.541 243.44C567.581 248.4 569.101 254.16 569.101 260.72C569.101 267.12 567.581 272.84 564.541 277.88C561.501 282.84 557.301 286.76 551.941 289.64C546.581 292.52 540.501 293.96 533.701 293.96ZM533.701 278.6C536.821 278.6 539.621 277.88 542.101 276.44C544.581 275 546.541 272.96 547.981 270.32C549.421 267.6 550.141 264.4 550.141 260.72C550.141 256.96 549.421 253.76 547.981 251.12C546.541 248.48 544.581 246.44 542.101 245C539.621 243.56 536.821 242.84 533.701 242.84C530.581 242.84 527.781 243.56 525.301 245C522.821 246.44 520.821 248.48 519.301 251.12C517.861 253.76 517.141 256.96 517.141 260.72C517.141 264.4 517.861 267.6 519.301 270.32C520.821 272.96 522.821 275 525.301 276.44C527.781 277.88 530.581 278.6 533.701 278.6ZM670.294 227.48C675.414 227.48 679.934 228.52 683.854 230.6C687.854 232.6 690.974 235.72 693.214 239.96C695.534 244.12 696.694 249.48 696.694 256.04V293H677.974V258.92C677.974 253.72 676.894 249.88 674.734 247.4C672.574 244.92 669.534 243.68 665.614 243.68C662.894 243.68 660.454 244.32 658.294 245.6C656.134 246.8 654.454 248.64 653.254 251.12C652.054 253.6 651.454 256.76 651.454 260.6V293H632.734V258.92C632.734 253.72 631.654 249.88 629.494 247.4C627.414 244.92 624.414 243.68 620.494 243.68C617.774 243.68 615.334 244.32 613.174 245.6C611.014 246.8 609.334 248.64 608.134 251.12C606.934 253.6 606.334 256.76 606.334 260.6V293H587.614V228.44H605.494V246.08L602.134 240.92C604.374 236.52 607.534 233.2 611.614 230.96C615.774 228.64 620.494 227.48 625.774 227.48C631.694 227.48 636.854 229 641.254 232.04C645.734 235 648.694 239.56 650.134 245.72L643.534 243.92C645.694 238.88 649.134 234.88 653.854 231.92C658.654 228.96 664.134 227.48 670.294 227.48ZM757.633 293.96C752.193 293.96 747.433 292.76 743.353 290.36C739.273 287.96 736.073 284.32 733.753 279.44C731.513 274.48 730.393 268.24 730.393 260.72C730.393 253.12 731.473 246.88 733.633 242C735.793 237.12 738.913 233.48 742.993 231.08C747.073 228.68 751.953 227.48 757.633 227.48C763.713 227.48 769.153 228.88 773.953 231.68C778.833 234.4 782.673 238.24 785.474 243.2C788.354 248.16 789.794 254 789.794 260.72C789.794 267.52 788.354 273.4 785.474 278.36C782.673 283.32 778.833 287.16 773.953 289.88C769.153 292.6 763.713 293.96 757.633 293.96ZM719.473 316.28V228.44H737.353V241.64L736.993 260.84L738.193 279.92V316.28H719.473ZM754.393 278.6C757.513 278.6 760.273 277.88 762.673 276.44C765.153 275 767.113 272.96 768.554 270.32C770.073 267.6 770.833 264.4 770.833 260.72C770.833 256.96 770.073 253.76 768.554 251.12C767.113 248.48 765.153 246.44 762.673 245C760.273 243.56 757.513 242.84 754.393 242.84C751.273 242.84 748.473 243.56 745.993 245C743.513 246.44 741.553 248.48 740.113 251.12C738.673 253.76 737.953 256.96 737.953 260.72C737.953 264.4 738.673 267.6 740.113 270.32C741.553 272.96 743.513 275 745.993 276.44C748.473 277.88 751.273 278.6 754.393 278.6ZM808.325 293V228.44H826.205V246.68L823.685 241.4C825.605 236.84 828.685 233.4 832.925 231.08C837.165 228.68 842.325 227.48 848.405 227.48V244.76C847.605 244.68 846.885 244.64 846.245 244.64C845.605 244.56 844.925 244.52 844.205 244.52C839.085 244.52 834.925 246 831.725 248.96C828.605 251.84 827.045 256.36 827.045 262.52V293H808.325ZM900.917 293V280.4L899.717 277.64V255.08C899.717 251.08 898.477 247.96 895.997 245.72C893.597 243.48 889.877 242.36 884.837 242.36C881.397 242.36 877.997 242.92 874.637 244.04C871.357 245.08 868.557 246.52 866.237 248.36L859.517 235.28C863.037 232.8 867.277 230.88 872.237 229.52C877.197 228.16 882.237 227.48 887.357 227.48C897.197 227.48 904.837 229.8 910.277 234.44C915.717 239.08 918.437 246.32 918.437 256.16V293H900.917ZM881.237 293.96C876.197 293.96 871.877 293.12 868.277 291.44C864.677 289.68 861.917 287.32 859.997 284.36C858.077 281.4 857.117 278.08 857.117 274.4C857.117 270.56 858.037 267.2 859.877 264.32C861.797 261.44 864.797 259.2 868.877 257.6C872.957 255.92 878.277 255.08 884.837 255.08H901.997V266H886.877C882.477 266 879.437 266.72 877.757 268.16C876.157 269.6 875.357 271.4 875.357 273.56C875.357 275.96 876.277 277.88 878.117 279.32C880.037 280.68 882.637 281.36 885.917 281.36C889.037 281.36 891.837 280.64 894.317 279.2C896.797 277.68 898.597 275.48 899.717 272.6L902.597 281.24C901.237 285.4 898.757 288.56 895.157 290.72C891.557 292.88 886.917 293.96 881.237 293.96Z" fill="black"/>
</svg>
