<svg width="811" height="99" viewBox="0 0 811 99" fill="none" xmlns="http://www.w3.org/2000/svg">
<rect y="35.6611" width="18.4528" height="27.6792" rx="9.22641" fill="white"/>
<rect x="22.1436" y="17.208" width="18.4528" height="64.5848" rx="9.22641" fill="white"/>
<rect x="44.2866" y="31.0479" width="18.4528" height="36.9056" rx="9.22641" fill="white"/>
<rect x="66.4302" y="17.208" width="18.4528" height="64.5848" rx="9.22641" fill="white"/>
<rect x="88.5732" y="35.6611" width="18.4528" height="27.6792" rx="9.22641" fill="white"/>
<path d="M146.417 79V22.3H170.96C176.036 22.3 180.41 23.137 184.082 24.811C187.754 26.431 190.589 28.78 192.587 31.858C194.585 34.936 195.584 38.608 195.584 42.874C195.584 47.086 194.585 50.731 192.587 53.809C190.589 56.833 187.754 59.155 184.082 60.775C180.41 62.395 176.036 63.205 170.96 63.205H153.707L159.539 57.454V79H146.417ZM182.462 79L168.287 58.426H182.3L196.637 79H182.462ZM159.539 58.912L153.707 52.756H170.231C174.281 52.756 177.305 51.892 179.303 50.164C181.301 48.382 182.3 45.952 182.3 42.874C182.3 39.742 181.301 37.312 179.303 35.584C177.305 33.856 174.281 32.992 170.231 32.992H153.707L159.539 26.755V58.912ZM230.766 79.648C225.798 79.648 221.424 78.676 217.644 76.732C213.918 74.788 211.029 72.142 208.977 68.794C206.925 65.392 205.899 61.531 205.899 57.211C205.899 52.837 206.898 48.976 208.896 45.628C210.948 42.226 213.729 39.58 217.239 37.69C220.749 35.746 224.718 34.774 229.146 34.774C233.412 34.774 237.246 35.692 240.648 37.528C244.104 39.31 246.831 41.902 248.829 45.304C250.827 48.652 251.826 52.675 251.826 57.373C251.826 57.859 251.799 58.426 251.745 59.074C251.691 59.668 251.637 60.235 251.583 60.775H216.186V53.404H244.941L240.081 55.591C240.081 53.323 239.622 51.352 238.704 49.678C237.786 48.004 236.517 46.708 234.897 45.79C233.277 44.818 231.387 44.332 229.227 44.332C227.067 44.332 225.15 44.818 223.476 45.79C221.856 46.708 220.587 48.031 219.669 49.759C218.751 51.433 218.292 53.431 218.292 55.753V57.697C218.292 60.073 218.805 62.179 219.831 64.015C220.911 65.797 222.396 67.174 224.286 68.146C226.23 69.064 228.498 69.523 231.09 69.523C233.412 69.523 235.437 69.172 237.165 68.47C238.947 67.768 240.567 66.715 242.025 65.311L248.748 72.601C246.75 74.869 244.239 76.624 241.215 77.866C238.191 79.054 234.708 79.648 230.766 79.648ZM285.349 79.648C280.651 79.648 276.466 78.703 272.794 76.813C269.122 74.869 266.233 72.196 264.127 68.794C262.075 65.392 261.049 61.531 261.049 57.211C261.049 52.837 262.075 48.976 264.127 45.628C266.233 42.226 269.122 39.58 272.794 37.69C276.466 35.746 280.651 34.774 285.349 34.774C289.939 34.774 293.935 35.746 297.337 37.69C300.739 39.58 303.25 42.307 304.87 45.871L295.069 51.136C293.935 49.084 292.504 47.572 290.776 46.6C289.102 45.628 287.266 45.142 285.268 45.142C283.108 45.142 281.164 45.628 279.436 46.6C277.708 47.572 276.331 48.949 275.305 50.731C274.333 52.513 273.847 54.673 273.847 57.211C273.847 59.749 274.333 61.909 275.305 63.691C276.331 65.473 277.708 66.85 279.436 67.822C281.164 68.794 283.108 69.28 285.268 69.28C287.266 69.28 289.102 68.821 290.776 67.903C292.504 66.931 293.935 65.392 295.069 63.286L304.87 68.632C303.25 72.142 300.739 74.869 297.337 76.813C293.935 78.703 289.939 79.648 285.349 79.648ZM336.378 79.648C331.734 79.648 327.603 78.676 323.985 76.732C320.421 74.788 317.586 72.142 315.48 68.794C313.428 65.392 312.402 61.531 312.402 57.211C312.402 52.837 313.428 48.976 315.48 45.628C317.586 42.226 320.421 39.58 323.985 37.69C327.603 35.746 331.734 34.774 336.378 34.774C340.968 34.774 345.072 35.746 348.69 37.69C352.308 39.58 355.143 42.199 357.195 45.547C359.247 48.895 360.273 52.783 360.273 57.211C360.273 61.531 359.247 65.392 357.195 68.794C355.143 72.142 352.308 74.788 348.69 76.732C345.072 78.676 340.968 79.648 336.378 79.648ZM336.378 69.28C338.484 69.28 340.374 68.794 342.048 67.822C343.722 66.85 345.045 65.473 346.017 63.691C346.989 61.855 347.475 59.695 347.475 57.211C347.475 54.673 346.989 52.513 346.017 50.731C345.045 48.949 343.722 47.572 342.048 46.6C340.374 45.628 338.484 45.142 336.378 45.142C334.272 45.142 332.382 45.628 330.708 46.6C329.034 47.572 327.684 48.949 326.658 50.731C325.686 52.513 325.2 54.673 325.2 57.211C325.2 59.695 325.686 61.855 326.658 63.691C327.684 65.473 329.034 66.85 330.708 67.822C332.382 68.794 334.272 69.28 336.378 69.28ZM428.578 34.774C432.034 34.774 435.085 35.476 437.731 36.88C440.431 38.23 442.537 40.336 444.049 43.198C445.615 46.006 446.398 49.624 446.398 54.052V79H433.762V55.996C433.762 52.486 433.033 49.894 431.575 48.22C430.117 46.546 428.065 45.709 425.419 45.709C423.583 45.709 421.936 46.141 420.478 47.005C419.02 47.815 417.886 49.057 417.076 50.731C416.266 52.405 415.861 54.538 415.861 57.13V79H403.225V55.996C403.225 52.486 402.496 49.894 401.038 48.22C399.634 46.546 397.609 45.709 394.963 45.709C393.127 45.709 391.48 46.141 390.022 47.005C388.564 47.815 387.43 49.057 386.62 50.731C385.81 52.405 385.405 54.538 385.405 57.13V79H372.769V35.422H384.838V47.329L382.57 43.846C384.082 40.876 386.215 38.635 388.969 37.123C391.777 35.557 394.963 34.774 398.527 34.774C402.523 34.774 406.006 35.8 408.976 37.852C412 39.85 413.998 42.928 414.97 47.086L410.515 45.871C411.973 42.469 414.295 39.769 417.481 37.771C420.721 35.773 424.42 34.774 428.578 34.774ZM487.532 79.648C483.86 79.648 480.647 78.838 477.893 77.218C475.139 75.598 472.979 73.141 471.413 69.847C469.901 66.499 469.145 62.287 469.145 57.211C469.145 52.081 469.874 47.869 471.332 44.575C472.79 41.281 474.896 38.824 477.65 37.204C480.404 35.584 483.698 34.774 487.532 34.774C491.636 34.774 495.308 35.719 498.548 37.609C501.842 39.445 504.434 42.037 506.324 45.385C508.268 48.733 509.24 52.675 509.24 57.211C509.24 61.801 508.268 65.77 506.324 69.118C504.434 72.466 501.842 75.058 498.548 76.894C495.308 78.73 491.636 79.648 487.532 79.648ZM461.774 94.714V35.422H473.843V44.332L473.6 57.292L474.41 70.171V94.714H461.774ZM485.345 69.28C487.451 69.28 489.314 68.794 490.934 67.822C492.608 66.85 493.931 65.473 494.903 63.691C495.929 61.855 496.442 59.695 496.442 57.211C496.442 54.673 495.929 52.513 494.903 50.731C493.931 48.949 492.608 47.572 490.934 46.6C489.314 45.628 487.451 45.142 485.345 45.142C483.239 45.142 481.349 45.628 479.675 46.6C478.001 47.572 476.678 48.949 475.706 50.731C474.734 52.513 474.248 54.673 474.248 57.211C474.248 59.695 474.734 61.855 475.706 63.691C476.678 65.473 478.001 66.85 479.675 67.822C481.349 68.794 483.239 69.28 485.345 69.28ZM521.749 79V35.422H533.818V47.734L532.117 44.17C533.413 41.092 535.492 38.77 538.354 37.204C541.216 35.584 544.699 34.774 548.803 34.774V46.438C548.263 46.384 547.777 46.357 547.345 46.357C546.913 46.303 546.454 46.276 545.968 46.276C542.512 46.276 539.704 47.275 537.544 49.273C535.438 51.217 534.385 54.268 534.385 58.426V79H521.749ZM584.248 79V70.495L583.438 68.632V53.404C583.438 50.704 582.601 48.598 580.927 47.086C579.307 45.574 576.796 44.818 573.394 44.818C571.072 44.818 568.777 45.196 566.509 45.952C564.295 46.654 562.405 47.626 560.839 48.868L556.303 40.039C558.679 38.365 561.541 37.069 564.889 36.151C568.237 35.233 571.639 34.774 575.095 34.774C581.737 34.774 586.894 36.34 590.566 39.472C594.238 42.604 596.074 47.491 596.074 54.133V79H584.248ZM570.964 79.648C567.562 79.648 564.646 79.081 562.216 77.947C559.786 76.759 557.923 75.166 556.627 73.168C555.331 71.17 554.683 68.929 554.683 66.445C554.683 63.853 555.304 61.585 556.546 59.641C557.842 57.697 559.867 56.185 562.621 55.105C565.375 53.971 568.966 53.404 573.394 53.404H584.977V60.775H574.771C571.801 60.775 569.749 61.261 568.615 62.233C567.535 63.205 566.995 64.42 566.995 65.878C566.995 67.498 567.616 68.794 568.858 69.766C570.154 70.684 571.909 71.143 574.123 71.143C576.229 71.143 578.119 70.657 579.793 69.685C581.467 68.659 582.682 67.174 583.438 65.23L585.382 71.062C584.464 73.87 582.79 76.003 580.36 77.461C577.93 78.919 574.798 79.648 570.964 79.648ZM639.587 79.972C635.213 79.972 631.136 79.27 627.356 77.866C623.63 76.408 620.39 74.356 617.636 71.71C614.882 69.064 612.722 65.959 611.156 62.395C609.644 58.831 608.888 54.916 608.888 50.65C608.888 46.384 609.644 42.469 611.156 38.905C612.722 35.341 614.882 32.236 617.636 29.59C620.444 26.944 623.711 24.919 627.437 23.515C631.163 22.057 635.24 21.328 639.668 21.328C644.582 21.328 649.01 22.192 652.952 23.92C656.948 25.594 660.296 28.078 662.996 31.372L654.572 39.148C652.628 36.934 650.468 35.287 648.092 34.207C645.716 33.073 643.124 32.506 640.316 32.506C637.67 32.506 635.24 32.938 633.026 33.802C630.812 34.666 628.895 35.908 627.275 37.528C625.655 39.148 624.386 41.065 623.468 43.279C622.604 45.493 622.172 47.95 622.172 50.65C622.172 53.35 622.604 55.807 623.468 58.021C624.386 60.235 625.655 62.152 627.275 63.772C628.895 65.392 630.812 66.634 633.026 67.498C635.24 68.362 637.67 68.794 640.316 68.794C643.124 68.794 645.716 68.254 648.092 67.174C650.468 66.04 652.628 64.339 654.572 62.071L662.996 69.847C660.296 73.141 656.948 75.652 652.952 77.38C649.01 79.108 644.555 79.972 639.587 79.972ZM675.907 79V22.3H700.45C705.526 22.3 709.9 23.137 713.572 24.811C717.244 26.431 720.079 28.78 722.077 31.858C724.075 34.936 725.074 38.608 725.074 42.874C725.074 47.086 724.075 50.731 722.077 53.809C720.079 56.833 717.244 59.155 713.572 60.775C709.9 62.395 705.526 63.205 700.45 63.205H683.197L689.029 57.454V79H675.907ZM711.952 79L697.777 58.426H711.79L726.127 79H711.952ZM689.029 58.912L683.197 52.756H699.721C703.771 52.756 706.795 51.892 708.793 50.164C710.791 48.382 711.79 45.952 711.79 42.874C711.79 39.742 710.791 37.312 708.793 35.584C706.795 33.856 703.771 32.992 699.721 32.992H683.197L689.029 26.755V58.912ZM739.52 79V22.3H750.374L774.512 62.314H768.761L792.494 22.3H803.267L803.429 79H791.117L791.036 41.173H793.304L774.35 73.006H768.437L749.078 41.173H751.832V79H739.52Z" fill="white"/>
</svg>
