<svg width="1000" height="500" viewBox="0 0 1000 500" fill="none" xmlns="http://www.w3.org/2000/svg">
<rect x="95.418" y="236.161" width="18.4528" height="27.6792" rx="9.22641" fill="#E7000B"/>
<rect x="117.246" y="217.708" width="18.4528" height="64.5848" rx="9.22641" fill="white"/>
<rect x="139.074" y="231.548" width="18.4528" height="36.9056" rx="9.22641" fill="#E7000B"/>
<rect x="160.901" y="217.708" width="18.4528" height="64.5848" rx="9.22641" fill="#FFB900"/>
<rect x="182.729" y="236.161" width="18.4528" height="27.6792" rx="9.22641" fill="white"/>
<path d="M240.573 279.5V222.8H265.116C270.192 222.8 274.566 223.637 278.238 225.311C281.91 226.931 284.745 229.28 286.743 232.358C288.741 235.436 289.74 239.108 289.74 243.374C289.74 247.586 288.741 251.231 286.743 254.309C284.745 257.333 281.91 259.655 278.238 261.275C274.566 262.895 270.192 263.705 265.116 263.705H247.863L253.695 257.954V279.5H240.573ZM276.618 279.5L262.443 258.926H276.456L290.793 279.5H276.618ZM253.695 259.412L247.863 253.256H264.387C268.437 253.256 271.461 252.392 273.459 250.664C275.457 248.882 276.456 246.452 276.456 243.374C276.456 240.242 275.457 237.812 273.459 236.084C271.461 234.356 268.437 233.492 264.387 233.492H247.863L253.695 227.255V259.412ZM324.922 280.148C319.954 280.148 315.58 279.176 311.8 277.232C308.074 275.288 305.185 272.642 303.133 269.294C301.081 265.892 300.055 262.031 300.055 257.711C300.055 253.337 301.054 249.476 303.052 246.128C305.104 242.726 307.885 240.08 311.395 238.19C314.905 236.246 318.874 235.274 323.302 235.274C327.568 235.274 331.402 236.192 334.804 238.028C338.26 239.81 340.987 242.402 342.985 245.804C344.983 249.152 345.982 253.175 345.982 257.873C345.982 258.359 345.955 258.926 345.901 259.574C345.847 260.168 345.793 260.735 345.739 261.275H310.342V253.904H339.097L334.237 256.091C334.237 253.823 333.778 251.852 332.86 250.178C331.942 248.504 330.673 247.208 329.053 246.29C327.433 245.318 325.543 244.832 323.383 244.832C321.223 244.832 319.306 245.318 317.632 246.29C316.012 247.208 314.743 248.531 313.825 250.259C312.907 251.933 312.448 253.931 312.448 256.253V258.197C312.448 260.573 312.961 262.679 313.987 264.515C315.067 266.297 316.552 267.674 318.442 268.646C320.386 269.564 322.654 270.023 325.246 270.023C327.568 270.023 329.593 269.672 331.321 268.97C333.103 268.268 334.723 267.215 336.181 265.811L342.904 273.101C340.906 275.369 338.395 277.124 335.371 278.366C332.347 279.554 328.864 280.148 324.922 280.148ZM379.505 280.148C374.807 280.148 370.622 279.203 366.95 277.313C363.278 275.369 360.389 272.696 358.283 269.294C356.231 265.892 355.205 262.031 355.205 257.711C355.205 253.337 356.231 249.476 358.283 246.128C360.389 242.726 363.278 240.08 366.95 238.19C370.622 236.246 374.807 235.274 379.505 235.274C384.095 235.274 388.091 236.246 391.493 238.19C394.895 240.08 397.406 242.807 399.026 246.371L389.225 251.636C388.091 249.584 386.66 248.072 384.932 247.1C383.258 246.128 381.422 245.642 379.424 245.642C377.264 245.642 375.32 246.128 373.592 247.1C371.864 248.072 370.487 249.449 369.461 251.231C368.489 253.013 368.003 255.173 368.003 257.711C368.003 260.249 368.489 262.409 369.461 264.191C370.487 265.973 371.864 267.35 373.592 268.322C375.32 269.294 377.264 269.78 379.424 269.78C381.422 269.78 383.258 269.321 384.932 268.403C386.66 267.431 388.091 265.892 389.225 263.786L399.026 269.132C397.406 272.642 394.895 275.369 391.493 277.313C388.091 279.203 384.095 280.148 379.505 280.148ZM430.533 280.148C425.889 280.148 421.758 279.176 418.14 277.232C414.576 275.288 411.741 272.642 409.635 269.294C407.583 265.892 406.557 262.031 406.557 257.711C406.557 253.337 407.583 249.476 409.635 246.128C411.741 242.726 414.576 240.08 418.14 238.19C421.758 236.246 425.889 235.274 430.533 235.274C435.123 235.274 439.227 236.246 442.845 238.19C446.463 240.08 449.298 242.699 451.35 246.047C453.402 249.395 454.428 253.283 454.428 257.711C454.428 262.031 453.402 265.892 451.35 269.294C449.298 272.642 446.463 275.288 442.845 277.232C439.227 279.176 435.123 280.148 430.533 280.148ZM430.533 269.78C432.639 269.78 434.529 269.294 436.203 268.322C437.877 267.35 439.2 265.973 440.172 264.191C441.144 262.355 441.63 260.195 441.63 257.711C441.63 255.173 441.144 253.013 440.172 251.231C439.2 249.449 437.877 248.072 436.203 247.1C434.529 246.128 432.639 245.642 430.533 245.642C428.427 245.642 426.537 246.128 424.863 247.1C423.189 248.072 421.839 249.449 420.813 251.231C419.841 253.013 419.355 255.173 419.355 257.711C419.355 260.195 419.841 262.355 420.813 264.191C421.839 265.973 423.189 267.35 424.863 268.322C426.537 269.294 428.427 269.78 430.533 269.78ZM522.734 235.274C526.19 235.274 529.241 235.976 531.887 237.38C534.587 238.73 536.693 240.836 538.205 243.698C539.771 246.506 540.554 250.124 540.554 254.552V279.5H527.918V256.496C527.918 252.986 527.189 250.394 525.731 248.72C524.273 247.046 522.221 246.209 519.575 246.209C517.739 246.209 516.092 246.641 514.634 247.505C513.176 248.315 512.042 249.557 511.232 251.231C510.422 252.905 510.017 255.038 510.017 257.63V279.5H497.381V256.496C497.381 252.986 496.652 250.394 495.194 248.72C493.79 247.046 491.765 246.209 489.119 246.209C487.283 246.209 485.636 246.641 484.178 247.505C482.72 248.315 481.586 249.557 480.776 251.231C479.966 252.905 479.561 255.038 479.561 257.63V279.5H466.925V235.922H478.994V247.829L476.726 244.346C478.238 241.376 480.371 239.135 483.125 237.623C485.933 236.057 489.119 235.274 492.683 235.274C496.679 235.274 500.162 236.3 503.132 238.352C506.156 240.35 508.154 243.428 509.126 247.586L504.671 246.371C506.129 242.969 508.451 240.269 511.637 238.271C514.877 236.273 518.576 235.274 522.734 235.274ZM581.688 280.148C578.016 280.148 574.803 279.338 572.049 277.718C569.295 276.098 567.135 273.641 565.569 270.347C564.057 266.999 563.301 262.787 563.301 257.711C563.301 252.581 564.03 248.369 565.488 245.075C566.946 241.781 569.052 239.324 571.806 237.704C574.56 236.084 577.854 235.274 581.688 235.274C585.792 235.274 589.464 236.219 592.704 238.109C595.998 239.945 598.59 242.537 600.48 245.885C602.424 249.233 603.396 253.175 603.396 257.711C603.396 262.301 602.424 266.27 600.48 269.618C598.59 272.966 595.998 275.558 592.704 277.394C589.464 279.23 585.792 280.148 581.688 280.148ZM555.93 295.214V235.922H567.999V244.832L567.756 257.792L568.566 270.671V295.214H555.93ZM579.501 269.78C581.607 269.78 583.47 269.294 585.09 268.322C586.764 267.35 588.087 265.973 589.059 264.191C590.085 262.355 590.598 260.195 590.598 257.711C590.598 255.173 590.085 253.013 589.059 251.231C588.087 249.449 586.764 248.072 585.09 247.1C583.47 246.128 581.607 245.642 579.501 245.642C577.395 245.642 575.505 246.128 573.831 247.1C572.157 248.072 570.834 249.449 569.862 251.231C568.89 253.013 568.404 255.173 568.404 257.711C568.404 260.195 568.89 262.355 569.862 264.191C570.834 265.973 572.157 267.35 573.831 268.322C575.505 269.294 577.395 269.78 579.501 269.78ZM615.904 279.5V235.922H627.973V248.234L626.272 244.67C627.568 241.592 629.647 239.27 632.509 237.704C635.371 236.084 638.854 235.274 642.958 235.274V246.938C642.418 246.884 641.932 246.857 641.5 246.857C641.068 246.803 640.609 246.776 640.123 246.776C636.667 246.776 633.859 247.775 631.699 249.773C629.593 251.717 628.54 254.768 628.54 258.926V279.5H615.904ZM678.404 279.5V270.995L677.594 269.132V253.904C677.594 251.204 676.757 249.098 675.083 247.586C673.463 246.074 670.952 245.318 667.55 245.318C665.228 245.318 662.933 245.696 660.665 246.452C658.451 247.154 656.561 248.126 654.995 249.368L650.459 240.539C652.835 238.865 655.697 237.569 659.045 236.651C662.393 235.733 665.795 235.274 669.251 235.274C675.893 235.274 681.05 236.84 684.722 239.972C688.394 243.104 690.23 247.991 690.23 254.633V279.5H678.404ZM665.12 280.148C661.718 280.148 658.802 279.581 656.372 278.447C653.942 277.259 652.079 275.666 650.783 273.668C649.487 271.67 648.839 269.429 648.839 266.945C648.839 264.353 649.46 262.085 650.702 260.141C651.998 258.197 654.023 256.685 656.777 255.605C659.531 254.471 663.122 253.904 667.55 253.904H679.133V261.275H668.927C665.957 261.275 663.905 261.761 662.771 262.733C661.691 263.705 661.151 264.92 661.151 266.378C661.151 267.998 661.772 269.294 663.014 270.266C664.31 271.184 666.065 271.643 668.279 271.643C670.385 271.643 672.275 271.157 673.949 270.185C675.623 269.159 676.838 267.674 677.594 265.73L679.538 271.562C678.62 274.37 676.946 276.503 674.516 277.961C672.086 279.419 668.954 280.148 665.12 280.148ZM733.742 280.472C729.368 280.472 725.291 279.77 721.511 278.366C717.785 276.908 714.545 274.856 711.791 272.21C709.037 269.564 706.877 266.459 705.311 262.895C703.799 259.331 703.043 255.416 703.043 251.15C703.043 246.884 703.799 242.969 705.311 239.405C706.877 235.841 709.037 232.736 711.791 230.09C714.599 227.444 717.866 225.419 721.592 224.015C725.318 222.557 729.395 221.828 733.823 221.828C738.737 221.828 743.165 222.692 747.107 224.42C751.103 226.094 754.451 228.578 757.151 231.872L748.727 239.648C746.783 237.434 744.623 235.787 742.247 234.707C739.871 233.573 737.279 233.006 734.471 233.006C731.825 233.006 729.395 233.438 727.181 234.302C724.967 235.166 723.05 236.408 721.43 238.028C719.81 239.648 718.541 241.565 717.623 243.779C716.759 245.993 716.327 248.45 716.327 251.15C716.327 253.85 716.759 256.307 717.623 258.521C718.541 260.735 719.81 262.652 721.43 264.272C723.05 265.892 724.967 267.134 727.181 267.998C729.395 268.862 731.825 269.294 734.471 269.294C737.279 269.294 739.871 268.754 742.247 267.674C744.623 266.54 746.783 264.839 748.727 262.571L757.151 270.347C754.451 273.641 751.103 276.152 747.107 277.88C743.165 279.608 738.71 280.472 733.742 280.472ZM770.063 279.5V222.8H794.606C799.682 222.8 804.056 223.637 807.728 225.311C811.4 226.931 814.235 229.28 816.233 232.358C818.231 235.436 819.23 239.108 819.23 243.374C819.23 247.586 818.231 251.231 816.233 254.309C814.235 257.333 811.4 259.655 807.728 261.275C804.056 262.895 799.682 263.705 794.606 263.705H777.353L783.185 257.954V279.5H770.063ZM806.108 279.5L791.933 258.926H805.946L820.283 279.5H806.108ZM783.185 259.412L777.353 253.256H793.877C797.927 253.256 800.951 252.392 802.949 250.664C804.947 248.882 805.946 246.452 805.946 243.374C805.946 240.242 804.947 237.812 802.949 236.084C800.951 234.356 797.927 233.492 793.877 233.492H777.353L783.185 227.255V259.412ZM833.676 279.5V222.8H844.53L868.668 262.814H862.917L886.65 222.8H897.423L897.585 279.5H885.273L885.192 241.673H887.46L868.506 273.506H862.593L843.234 241.673H845.988V279.5H833.676Z" fill="white"/>
</svg>
