<svg width="750" height="750" viewBox="0 0 750 750" fill="none" xmlns="http://www.w3.org/2000/svg">
<rect x="321.487" y="303.561" width="18.4528" height="27.6792" rx="9.22641" fill="black"/>
<rect x="343.63" y="285.107" width="18.4528" height="64.5848" rx="9.22641" fill="black"/>
<rect x="365.773" y="298.947" width="18.4528" height="36.9056" rx="9.22641" fill="black"/>
<rect x="387.917" y="285.107" width="18.4528" height="64.5848" rx="9.22641" fill="black"/>
<rect x="410.061" y="303.561" width="18.4528" height="27.6792" rx="9.22641" fill="black"/>
<path d="M46.4906 444.893V388.193H71.0336C76.1096 388.193 80.4836 389.03 84.1556 390.704C87.8276 392.324 90.6626 394.673 92.6606 397.751C94.6586 400.829 95.6576 404.501 95.6576 408.767C95.6576 412.979 94.6586 416.624 92.6606 419.702C90.6626 422.726 87.8276 425.048 84.1556 426.668C80.4836 428.288 76.1096 429.098 71.0336 429.098H53.7806L59.6126 423.347V444.893H46.4906ZM82.5356 444.893L68.3606 424.319H82.3736L96.7106 444.893H82.5356ZM59.6126 424.805L53.7806 418.649H70.3046C74.3546 418.649 77.3786 417.785 79.3766 416.057C81.3746 414.275 82.3736 411.845 82.3736 408.767C82.3736 405.635 81.3746 403.205 79.3766 401.477C77.3786 399.749 74.3546 398.885 70.3046 398.885H53.7806L59.6126 392.648V424.805ZM130.84 445.541C125.872 445.541 121.498 444.569 117.718 442.625C113.992 440.681 111.103 438.035 109.051 434.687C106.999 431.285 105.973 427.424 105.973 423.104C105.973 418.73 106.972 414.869 108.97 411.521C111.022 408.119 113.803 405.473 117.313 403.583C120.823 401.639 124.792 400.667 129.22 400.667C133.486 400.667 137.32 401.585 140.722 403.421C144.178 405.203 146.905 407.795 148.903 411.197C150.901 414.545 151.9 418.568 151.9 423.266C151.9 423.752 151.873 424.319 151.819 424.967C151.765 425.561 151.711 426.128 151.657 426.668H116.26V419.297H145.015L140.155 421.484C140.155 419.216 139.696 417.245 138.778 415.571C137.86 413.897 136.591 412.601 134.971 411.683C133.351 410.711 131.461 410.225 129.301 410.225C127.141 410.225 125.224 410.711 123.55 411.683C121.93 412.601 120.661 413.924 119.743 415.652C118.825 417.326 118.366 419.324 118.366 421.646V423.59C118.366 425.966 118.879 428.072 119.905 429.908C120.985 431.69 122.47 433.067 124.36 434.039C126.304 434.957 128.572 435.416 131.164 435.416C133.486 435.416 135.511 435.065 137.239 434.363C139.021 433.661 140.641 432.608 142.099 431.204L148.822 438.494C146.824 440.762 144.313 442.517 141.289 443.759C138.265 444.947 134.782 445.541 130.84 445.541ZM185.423 445.541C180.725 445.541 176.54 444.596 172.868 442.706C169.196 440.762 166.307 438.089 164.201 434.687C162.149 431.285 161.123 427.424 161.123 423.104C161.123 418.73 162.149 414.869 164.201 411.521C166.307 408.119 169.196 405.473 172.868 403.583C176.54 401.639 180.725 400.667 185.423 400.667C190.013 400.667 194.009 401.639 197.411 403.583C200.813 405.473 203.324 408.2 204.944 411.764L195.143 417.029C194.009 414.977 192.578 413.465 190.85 412.493C189.176 411.521 187.34 411.035 185.342 411.035C183.182 411.035 181.238 411.521 179.51 412.493C177.782 413.465 176.405 414.842 175.379 416.624C174.407 418.406 173.921 420.566 173.921 423.104C173.921 425.642 174.407 427.802 175.379 429.584C176.405 431.366 177.782 432.743 179.51 433.715C181.238 434.687 183.182 435.173 185.342 435.173C187.34 435.173 189.176 434.714 190.85 433.796C192.578 432.824 194.009 431.285 195.143 429.179L204.944 434.525C203.324 438.035 200.813 440.762 197.411 442.706C194.009 444.596 190.013 445.541 185.423 445.541ZM236.451 445.541C231.807 445.541 227.676 444.569 224.058 442.625C220.494 440.681 217.659 438.035 215.553 434.687C213.501 431.285 212.475 427.424 212.475 423.104C212.475 418.73 213.501 414.869 215.553 411.521C217.659 408.119 220.494 405.473 224.058 403.583C227.676 401.639 231.807 400.667 236.451 400.667C241.041 400.667 245.145 401.639 248.763 403.583C252.381 405.473 255.216 408.092 257.268 411.44C259.32 414.788 260.346 418.676 260.346 423.104C260.346 427.424 259.32 431.285 257.268 434.687C255.216 438.035 252.381 440.681 248.763 442.625C245.145 444.569 241.041 445.541 236.451 445.541ZM236.451 435.173C238.557 435.173 240.447 434.687 242.121 433.715C243.795 432.743 245.118 431.366 246.09 429.584C247.062 427.748 247.548 425.588 247.548 423.104C247.548 420.566 247.062 418.406 246.09 416.624C245.118 414.842 243.795 413.465 242.121 412.493C240.447 411.521 238.557 411.035 236.451 411.035C234.345 411.035 232.455 411.521 230.781 412.493C229.107 413.465 227.757 414.842 226.731 416.624C225.759 418.406 225.273 420.566 225.273 423.104C225.273 425.588 225.759 427.748 226.731 429.584C227.757 431.366 229.107 432.743 230.781 433.715C232.455 434.687 234.345 435.173 236.451 435.173ZM328.652 400.667C332.108 400.667 335.159 401.369 337.805 402.773C340.505 404.123 342.611 406.229 344.123 409.091C345.689 411.899 346.472 415.517 346.472 419.945V444.893H333.836V421.889C333.836 418.379 333.107 415.787 331.649 414.113C330.191 412.439 328.139 411.602 325.493 411.602C323.657 411.602 322.01 412.034 320.552 412.898C319.094 413.708 317.96 414.95 317.15 416.624C316.34 418.298 315.935 420.431 315.935 423.023V444.893H303.299V421.889C303.299 418.379 302.57 415.787 301.112 414.113C299.708 412.439 297.683 411.602 295.037 411.602C293.201 411.602 291.554 412.034 290.096 412.898C288.638 413.708 287.504 414.95 286.694 416.624C285.884 418.298 285.479 420.431 285.479 423.023V444.893H272.843V401.315H284.912V413.222L282.644 409.739C284.156 406.769 286.289 404.528 289.043 403.016C291.851 401.45 295.037 400.667 298.601 400.667C302.597 400.667 306.08 401.693 309.05 403.745C312.074 405.743 314.072 408.821 315.044 412.979L310.589 411.764C312.047 408.362 314.369 405.662 317.555 403.664C320.795 401.666 324.494 400.667 328.652 400.667ZM387.606 445.541C383.934 445.541 380.721 444.731 377.967 443.111C375.213 441.491 373.053 439.034 371.487 435.74C369.975 432.392 369.219 428.18 369.219 423.104C369.219 417.974 369.948 413.762 371.406 410.468C372.864 407.174 374.97 404.717 377.724 403.097C380.478 401.477 383.772 400.667 387.606 400.667C391.71 400.667 395.382 401.612 398.622 403.502C401.916 405.338 404.508 407.93 406.398 411.278C408.342 414.626 409.314 418.568 409.314 423.104C409.314 427.694 408.342 431.663 406.398 435.011C404.508 438.359 401.916 440.951 398.622 442.787C395.382 444.623 391.71 445.541 387.606 445.541ZM361.848 460.607V401.315H373.917V410.225L373.674 423.185L374.484 436.064V460.607H361.848ZM385.419 435.173C387.525 435.173 389.388 434.687 391.008 433.715C392.682 432.743 394.005 431.366 394.977 429.584C396.003 427.748 396.516 425.588 396.516 423.104C396.516 420.566 396.003 418.406 394.977 416.624C394.005 414.842 392.682 413.465 391.008 412.493C389.388 411.521 387.525 411.035 385.419 411.035C383.313 411.035 381.423 411.521 379.749 412.493C378.075 413.465 376.752 414.842 375.78 416.624C374.808 418.406 374.322 420.566 374.322 423.104C374.322 425.588 374.808 427.748 375.78 429.584C376.752 431.366 378.075 432.743 379.749 433.715C381.423 434.687 383.313 435.173 385.419 435.173ZM421.822 444.893V401.315H433.891V413.627L432.19 410.063C433.486 406.985 435.565 404.663 438.427 403.097C441.289 401.477 444.772 400.667 448.876 400.667V412.331C448.336 412.277 447.85 412.25 447.418 412.25C446.986 412.196 446.527 412.169 446.041 412.169C442.585 412.169 439.777 413.168 437.617 415.166C435.511 417.11 434.458 420.161 434.458 424.319V444.893H421.822ZM484.322 444.893V436.388L483.512 434.525V419.297C483.512 416.597 482.675 414.491 481.001 412.979C479.381 411.467 476.87 410.711 473.468 410.711C471.146 410.711 468.851 411.089 466.583 411.845C464.369 412.547 462.479 413.519 460.913 414.761L456.377 405.932C458.753 404.258 461.615 402.962 464.963 402.044C468.311 401.126 471.713 400.667 475.169 400.667C481.811 400.667 486.968 402.233 490.64 405.365C494.312 408.497 496.148 413.384 496.148 420.026V444.893H484.322ZM471.038 445.541C467.636 445.541 464.72 444.974 462.29 443.84C459.86 442.652 457.997 441.059 456.701 439.061C455.405 437.063 454.757 434.822 454.757 432.338C454.757 429.746 455.378 427.478 456.62 425.534C457.916 423.59 459.941 422.078 462.695 420.998C465.449 419.864 469.04 419.297 473.468 419.297H485.051V426.668H474.845C471.875 426.668 469.823 427.154 468.689 428.126C467.609 429.098 467.069 430.313 467.069 431.771C467.069 433.391 467.69 434.687 468.932 435.659C470.228 436.577 471.983 437.036 474.197 437.036C476.303 437.036 478.193 436.55 479.867 435.578C481.541 434.552 482.756 433.067 483.512 431.123L485.456 436.955C484.538 439.763 482.864 441.896 480.434 443.354C478.004 444.812 474.872 445.541 471.038 445.541ZM539.66 445.865C535.286 445.865 531.209 445.163 527.429 443.759C523.703 442.301 520.463 440.249 517.709 437.603C514.955 434.957 512.795 431.852 511.229 428.288C509.717 424.724 508.961 420.809 508.961 416.543C508.961 412.277 509.717 408.362 511.229 404.798C512.795 401.234 514.955 398.129 517.709 395.483C520.517 392.837 523.784 390.812 527.51 389.408C531.236 387.95 535.313 387.221 539.741 387.221C544.655 387.221 549.083 388.085 553.025 389.813C557.021 391.487 560.369 393.971 563.069 397.265L554.645 405.041C552.701 402.827 550.541 401.18 548.165 400.1C545.789 398.966 543.197 398.399 540.389 398.399C537.743 398.399 535.313 398.831 533.099 399.695C530.885 400.559 528.968 401.801 527.348 403.421C525.728 405.041 524.459 406.958 523.541 409.172C522.677 411.386 522.245 413.843 522.245 416.543C522.245 419.243 522.677 421.7 523.541 423.914C524.459 426.128 525.728 428.045 527.348 429.665C528.968 431.285 530.885 432.527 533.099 433.391C535.313 434.255 537.743 434.687 540.389 434.687C543.197 434.687 545.789 434.147 548.165 433.067C550.541 431.933 552.701 430.232 554.645 427.964L563.069 435.74C560.369 439.034 557.021 441.545 553.025 443.273C549.083 445.001 544.628 445.865 539.66 445.865ZM575.981 444.893V388.193H600.524C605.6 388.193 609.974 389.03 613.646 390.704C617.318 392.324 620.153 394.673 622.151 397.751C624.149 400.829 625.148 404.501 625.148 408.767C625.148 412.979 624.149 416.624 622.151 419.702C620.153 422.726 617.318 425.048 613.646 426.668C609.974 428.288 605.6 429.098 600.524 429.098H583.271L589.103 423.347V444.893H575.981ZM612.026 444.893L597.851 424.319H611.864L626.201 444.893H612.026ZM589.103 424.805L583.271 418.649H599.795C603.845 418.649 606.869 417.785 608.867 416.057C610.865 414.275 611.864 411.845 611.864 408.767C611.864 405.635 610.865 403.205 608.867 401.477C606.869 399.749 603.845 398.885 599.795 398.885H583.271L589.103 392.648V424.805ZM639.594 444.893V388.193H650.448L674.586 428.207H668.835L692.568 388.193H703.341L703.503 444.893H691.191L691.11 407.066H693.378L674.424 438.899H668.511L649.152 407.066H651.906V444.893H639.594Z" fill="black"/>
</svg>
