<svg width="671" height="180" viewBox="0 0 671 180" fill="none" xmlns="http://www.w3.org/2000/svg">
<rect x="281.987" y="18.4531" width="18.4528" height="27.6792" rx="9.22641" fill="black"/>
<rect x="304.13" width="18.4528" height="64.5848" rx="9.22641" fill="black"/>
<rect x="326.273" y="13.8398" width="18.4528" height="36.9056" rx="9.22641" fill="black"/>
<rect x="348.417" width="18.4528" height="64.5848" rx="9.22641" fill="black"/>
<rect x="370.561" y="18.4531" width="18.4528" height="27.6792" rx="9.22641" fill="black"/>
<path d="M6.99058 159.785V103.085H31.5336C36.6096 103.085 40.9836 103.922 44.6556 105.596C48.3276 107.216 51.1626 109.565 53.1606 112.643C55.1586 115.721 56.1576 119.393 56.1576 123.659C56.1576 127.871 55.1586 131.516 53.1606 134.594C51.1626 137.618 48.3276 139.94 44.6556 141.56C40.9836 143.18 36.6096 143.99 31.5336 143.99H14.2806L20.1126 138.239V159.785H6.99058ZM43.0356 159.785L28.8606 139.211H42.8736L57.2106 159.785H43.0356ZM20.1126 139.697L14.2806 133.541H30.8046C34.8546 133.541 37.8786 132.677 39.8766 130.949C41.8746 129.167 42.8736 126.737 42.8736 123.659C42.8736 120.527 41.8746 118.097 39.8766 116.369C37.8786 114.641 34.8546 113.777 30.8046 113.777H14.2806L20.1126 107.54V139.697ZM91.3401 160.433C86.3721 160.433 81.9981 159.461 78.2181 157.517C74.4921 155.573 71.6031 152.927 69.5511 149.579C67.4991 146.177 66.4731 142.316 66.4731 137.996C66.4731 133.622 67.4721 129.761 69.4701 126.413C71.5221 123.011 74.3031 120.365 77.8131 118.475C81.3231 116.531 85.2921 115.559 89.7201 115.559C93.9861 115.559 97.8201 116.477 101.222 118.313C104.678 120.095 107.405 122.687 109.403 126.089C111.401 129.437 112.4 133.46 112.4 138.158C112.4 138.644 112.373 139.211 112.319 139.859C112.265 140.453 112.211 141.02 112.157 141.56H76.7601V134.189H105.515L100.655 136.376C100.655 134.108 100.196 132.137 99.2781 130.463C98.3601 128.789 97.0911 127.493 95.4711 126.575C93.8511 125.603 91.9611 125.117 89.8011 125.117C87.6411 125.117 85.7241 125.603 84.0501 126.575C82.4301 127.493 81.1611 128.816 80.2431 130.544C79.3251 132.218 78.8661 134.216 78.8661 136.538V138.482C78.8661 140.858 79.3791 142.964 80.4051 144.8C81.4851 146.582 82.9701 147.959 84.8601 148.931C86.8041 149.849 89.0721 150.308 91.6641 150.308C93.9861 150.308 96.0111 149.957 97.7391 149.255C99.5211 148.553 101.141 147.5 102.599 146.096L109.322 153.386C107.324 155.654 104.813 157.409 101.789 158.651C98.7651 159.839 95.2821 160.433 91.3401 160.433ZM145.923 160.433C141.225 160.433 137.04 159.488 133.368 157.598C129.696 155.654 126.807 152.981 124.701 149.579C122.649 146.177 121.623 142.316 121.623 137.996C121.623 133.622 122.649 129.761 124.701 126.413C126.807 123.011 129.696 120.365 133.368 118.475C137.04 116.531 141.225 115.559 145.923 115.559C150.513 115.559 154.509 116.531 157.911 118.475C161.313 120.365 163.824 123.092 165.444 126.656L155.643 131.921C154.509 129.869 153.078 128.357 151.35 127.385C149.676 126.413 147.84 125.927 145.842 125.927C143.682 125.927 141.738 126.413 140.01 127.385C138.282 128.357 136.905 129.734 135.879 131.516C134.907 133.298 134.421 135.458 134.421 137.996C134.421 140.534 134.907 142.694 135.879 144.476C136.905 146.258 138.282 147.635 140.01 148.607C141.738 149.579 143.682 150.065 145.842 150.065C147.84 150.065 149.676 149.606 151.35 148.688C153.078 147.716 154.509 146.177 155.643 144.071L165.444 149.417C163.824 152.927 161.313 155.654 157.911 157.598C154.509 159.488 150.513 160.433 145.923 160.433ZM196.951 160.433C192.307 160.433 188.176 159.461 184.558 157.517C180.994 155.573 178.159 152.927 176.053 149.579C174.001 146.177 172.975 142.316 172.975 137.996C172.975 133.622 174.001 129.761 176.053 126.413C178.159 123.011 180.994 120.365 184.558 118.475C188.176 116.531 192.307 115.559 196.951 115.559C201.541 115.559 205.645 116.531 209.263 118.475C212.881 120.365 215.716 122.984 217.768 126.332C219.82 129.68 220.846 133.568 220.846 137.996C220.846 142.316 219.82 146.177 217.768 149.579C215.716 152.927 212.881 155.573 209.263 157.517C205.645 159.461 201.541 160.433 196.951 160.433ZM196.951 150.065C199.057 150.065 200.947 149.579 202.621 148.607C204.295 147.635 205.618 146.258 206.59 144.476C207.562 142.64 208.048 140.48 208.048 137.996C208.048 135.458 207.562 133.298 206.59 131.516C205.618 129.734 204.295 128.357 202.621 127.385C200.947 126.413 199.057 125.927 196.951 125.927C194.845 125.927 192.955 126.413 191.281 127.385C189.607 128.357 188.257 129.734 187.231 131.516C186.259 133.298 185.773 135.458 185.773 137.996C185.773 140.48 186.259 142.64 187.231 144.476C188.257 146.258 189.607 147.635 191.281 148.607C192.955 149.579 194.845 150.065 196.951 150.065ZM289.152 115.559C292.608 115.559 295.659 116.261 298.305 117.665C301.005 119.015 303.111 121.121 304.623 123.983C306.189 126.791 306.972 130.409 306.972 134.837V159.785H294.336V136.781C294.336 133.271 293.607 130.679 292.149 129.005C290.691 127.331 288.639 126.494 285.993 126.494C284.157 126.494 282.51 126.926 281.052 127.79C279.594 128.6 278.46 129.842 277.65 131.516C276.84 133.19 276.435 135.323 276.435 137.915V159.785H263.799V136.781C263.799 133.271 263.07 130.679 261.612 129.005C260.208 127.331 258.183 126.494 255.537 126.494C253.701 126.494 252.054 126.926 250.596 127.79C249.138 128.6 248.004 129.842 247.194 131.516C246.384 133.19 245.979 135.323 245.979 137.915V159.785H233.343V116.207H245.412V128.114L243.144 124.631C244.656 121.661 246.789 119.42 249.543 117.908C252.351 116.342 255.537 115.559 259.101 115.559C263.097 115.559 266.58 116.585 269.55 118.637C272.574 120.635 274.572 123.713 275.544 127.871L271.089 126.656C272.547 123.254 274.869 120.554 278.055 118.556C281.295 116.558 284.994 115.559 289.152 115.559ZM348.106 160.433C344.434 160.433 341.221 159.623 338.467 158.003C335.713 156.383 333.553 153.926 331.987 150.632C330.475 147.284 329.719 143.072 329.719 137.996C329.719 132.866 330.448 128.654 331.906 125.36C333.364 122.066 335.47 119.609 338.224 117.989C340.978 116.369 344.272 115.559 348.106 115.559C352.21 115.559 355.882 116.504 359.122 118.394C362.416 120.23 365.008 122.822 366.898 126.17C368.842 129.518 369.814 133.46 369.814 137.996C369.814 142.586 368.842 146.555 366.898 149.903C365.008 153.251 362.416 155.843 359.122 157.679C355.882 159.515 352.21 160.433 348.106 160.433ZM322.348 175.499V116.207H334.417V125.117L334.174 138.077L334.984 150.956V175.499H322.348ZM345.919 150.065C348.025 150.065 349.888 149.579 351.508 148.607C353.182 147.635 354.505 146.258 355.477 144.476C356.503 142.64 357.016 140.48 357.016 137.996C357.016 135.458 356.503 133.298 355.477 131.516C354.505 129.734 353.182 128.357 351.508 127.385C349.888 126.413 348.025 125.927 345.919 125.927C343.813 125.927 341.923 126.413 340.249 127.385C338.575 128.357 337.252 129.734 336.28 131.516C335.308 133.298 334.822 135.458 334.822 137.996C334.822 140.48 335.308 142.64 336.28 144.476C337.252 146.258 338.575 147.635 340.249 148.607C341.923 149.579 343.813 150.065 345.919 150.065ZM382.322 159.785V116.207H394.391V128.519L392.69 124.955C393.986 121.877 396.065 119.555 398.927 117.989C401.789 116.369 405.272 115.559 409.376 115.559V127.223C408.836 127.169 408.35 127.142 407.918 127.142C407.486 127.088 407.027 127.061 406.541 127.061C403.085 127.061 400.277 128.06 398.117 130.058C396.011 132.002 394.958 135.053 394.958 139.211V159.785H382.322ZM444.822 159.785V151.28L444.012 149.417V134.189C444.012 131.489 443.175 129.383 441.501 127.871C439.881 126.359 437.37 125.603 433.968 125.603C431.646 125.603 429.351 125.981 427.083 126.737C424.869 127.439 422.979 128.411 421.413 129.653L416.877 120.824C419.253 119.15 422.115 117.854 425.463 116.936C428.811 116.018 432.213 115.559 435.669 115.559C442.311 115.559 447.468 117.125 451.14 120.257C454.812 123.389 456.648 128.276 456.648 134.918V159.785H444.822ZM431.538 160.433C428.136 160.433 425.22 159.866 422.79 158.732C420.36 157.544 418.497 155.951 417.201 153.953C415.905 151.955 415.257 149.714 415.257 147.23C415.257 144.638 415.878 142.37 417.12 140.426C418.416 138.482 420.441 136.97 423.195 135.89C425.949 134.756 429.54 134.189 433.968 134.189H445.551V141.56H435.345C432.375 141.56 430.323 142.046 429.189 143.018C428.109 143.99 427.569 145.205 427.569 146.663C427.569 148.283 428.19 149.579 429.432 150.551C430.728 151.469 432.483 151.928 434.697 151.928C436.803 151.928 438.693 151.442 440.367 150.47C442.041 149.444 443.256 147.959 444.012 146.015L445.956 151.847C445.038 154.655 443.364 156.788 440.934 158.246C438.504 159.704 435.372 160.433 431.538 160.433ZM500.16 160.757C495.786 160.757 491.709 160.055 487.929 158.651C484.203 157.193 480.963 155.141 478.209 152.495C475.455 149.849 473.295 146.744 471.729 143.18C470.217 139.616 469.461 135.701 469.461 131.435C469.461 127.169 470.217 123.254 471.729 119.69C473.295 116.126 475.455 113.021 478.209 110.375C481.017 107.729 484.284 105.704 488.01 104.3C491.736 102.842 495.813 102.113 500.241 102.113C505.155 102.113 509.583 102.977 513.525 104.705C517.521 106.379 520.869 108.863 523.569 112.157L515.145 119.933C513.201 117.719 511.041 116.072 508.665 114.992C506.289 113.858 503.697 113.291 500.889 113.291C498.243 113.291 495.813 113.723 493.599 114.587C491.385 115.451 489.468 116.693 487.848 118.313C486.228 119.933 484.959 121.85 484.041 124.064C483.177 126.278 482.745 128.735 482.745 131.435C482.745 134.135 483.177 136.592 484.041 138.806C484.959 141.02 486.228 142.937 487.848 144.557C489.468 146.177 491.385 147.419 493.599 148.283C495.813 149.147 498.243 149.579 500.889 149.579C503.697 149.579 506.289 149.039 508.665 147.959C511.041 146.825 513.201 145.124 515.145 142.856L523.569 150.632C520.869 153.926 517.521 156.437 513.525 158.165C509.583 159.893 505.128 160.757 500.16 160.757ZM536.481 159.785V103.085H561.024C566.1 103.085 570.474 103.922 574.146 105.596C577.818 107.216 580.653 109.565 582.651 112.643C584.649 115.721 585.648 119.393 585.648 123.659C585.648 127.871 584.649 131.516 582.651 134.594C580.653 137.618 577.818 139.94 574.146 141.56C570.474 143.18 566.1 143.99 561.024 143.99H543.771L549.603 138.239V159.785H536.481ZM572.526 159.785L558.351 139.211H572.364L586.701 159.785H572.526ZM549.603 139.697L543.771 133.541H560.295C564.345 133.541 567.369 132.677 569.367 130.949C571.365 129.167 572.364 126.737 572.364 123.659C572.364 120.527 571.365 118.097 569.367 116.369C567.369 114.641 564.345 113.777 560.295 113.777H543.771L549.603 107.54V139.697ZM600.094 159.785V103.085H610.948L635.086 143.099H629.335L653.068 103.085H663.841L664.003 159.785H651.691L651.61 121.958H653.878L634.924 153.791H629.011L609.652 121.958H612.406V159.785H600.094Z" fill="black"/>
</svg>
