<svg width="1000" height="500" viewBox="0 0 1000 500" fill="none" xmlns="http://www.w3.org/2000/svg">
<rect x="94.7866" y="236.161" width="18.4528" height="27.6792" rx="9.22641" fill="black"/>
<rect x="116.93" y="217.708" width="18.4528" height="64.5848" rx="9.22641" fill="black"/>
<rect x="139.073" y="231.548" width="18.4528" height="36.9056" rx="9.22641" fill="black"/>
<rect x="161.217" y="217.708" width="18.4528" height="64.5848" rx="9.22641" fill="black"/>
<rect x="183.36" y="236.161" width="18.4528" height="27.6792" rx="9.22641" fill="black"/>
<path d="M241.203 279.5V222.8H265.746C270.822 222.8 275.196 223.637 278.868 225.311C282.54 226.931 285.375 229.28 287.373 232.358C289.371 235.436 290.37 239.108 290.37 243.374C290.37 247.586 289.371 251.231 287.373 254.309C285.375 257.333 282.54 259.655 278.868 261.275C275.196 262.895 270.822 263.705 265.746 263.705H248.493L254.325 257.954V279.5H241.203ZM277.248 279.5L263.073 258.926H277.086L291.423 279.5H277.248ZM254.325 259.412L248.493 253.256H265.017C269.067 253.256 272.091 252.392 274.089 250.664C276.087 248.882 277.086 246.452 277.086 243.374C277.086 240.242 276.087 237.812 274.089 236.084C272.091 234.356 269.067 233.492 265.017 233.492H248.493L254.325 227.255V259.412ZM325.553 280.148C320.585 280.148 316.211 279.176 312.431 277.232C308.705 275.288 305.816 272.642 303.764 269.294C301.712 265.892 300.686 262.031 300.686 257.711C300.686 253.337 301.685 249.476 303.683 246.128C305.735 242.726 308.516 240.08 312.026 238.19C315.536 236.246 319.505 235.274 323.933 235.274C328.199 235.274 332.033 236.192 335.435 238.028C338.891 239.81 341.618 242.402 343.616 245.804C345.614 249.152 346.613 253.175 346.613 257.873C346.613 258.359 346.586 258.926 346.532 259.574C346.478 260.168 346.424 260.735 346.37 261.275H310.973V253.904H339.728L334.868 256.091C334.868 253.823 334.409 251.852 333.491 250.178C332.573 248.504 331.304 247.208 329.684 246.29C328.064 245.318 326.174 244.832 324.014 244.832C321.854 244.832 319.937 245.318 318.263 246.29C316.643 247.208 315.374 248.531 314.456 250.259C313.538 251.933 313.079 253.931 313.079 256.253V258.197C313.079 260.573 313.592 262.679 314.618 264.515C315.698 266.297 317.183 267.674 319.073 268.646C321.017 269.564 323.285 270.023 325.877 270.023C328.199 270.023 330.224 269.672 331.952 268.97C333.734 268.268 335.354 267.215 336.812 265.811L343.535 273.101C341.537 275.369 339.026 277.124 336.002 278.366C332.978 279.554 329.495 280.148 325.553 280.148ZM380.136 280.148C375.438 280.148 371.253 279.203 367.581 277.313C363.909 275.369 361.02 272.696 358.914 269.294C356.862 265.892 355.836 262.031 355.836 257.711C355.836 253.337 356.862 249.476 358.914 246.128C361.02 242.726 363.909 240.08 367.581 238.19C371.253 236.246 375.438 235.274 380.136 235.274C384.726 235.274 388.722 236.246 392.124 238.19C395.526 240.08 398.037 242.807 399.657 246.371L389.856 251.636C388.722 249.584 387.291 248.072 385.563 247.1C383.889 246.128 382.053 245.642 380.055 245.642C377.895 245.642 375.951 246.128 374.223 247.1C372.495 248.072 371.118 249.449 370.092 251.231C369.12 253.013 368.634 255.173 368.634 257.711C368.634 260.249 369.12 262.409 370.092 264.191C371.118 265.973 372.495 267.35 374.223 268.322C375.951 269.294 377.895 269.78 380.055 269.78C382.053 269.78 383.889 269.321 385.563 268.403C387.291 267.431 388.722 265.892 389.856 263.786L399.657 269.132C398.037 272.642 395.526 275.369 392.124 277.313C388.722 279.203 384.726 280.148 380.136 280.148ZM431.164 280.148C426.52 280.148 422.389 279.176 418.771 277.232C415.207 275.288 412.372 272.642 410.266 269.294C408.214 265.892 407.188 262.031 407.188 257.711C407.188 253.337 408.214 249.476 410.266 246.128C412.372 242.726 415.207 240.08 418.771 238.19C422.389 236.246 426.52 235.274 431.164 235.274C435.754 235.274 439.858 236.246 443.476 238.19C447.094 240.08 449.929 242.699 451.981 246.047C454.033 249.395 455.059 253.283 455.059 257.711C455.059 262.031 454.033 265.892 451.981 269.294C449.929 272.642 447.094 275.288 443.476 277.232C439.858 279.176 435.754 280.148 431.164 280.148ZM431.164 269.78C433.27 269.78 435.16 269.294 436.834 268.322C438.508 267.35 439.831 265.973 440.803 264.191C441.775 262.355 442.261 260.195 442.261 257.711C442.261 255.173 441.775 253.013 440.803 251.231C439.831 249.449 438.508 248.072 436.834 247.1C435.16 246.128 433.27 245.642 431.164 245.642C429.058 245.642 427.168 246.128 425.494 247.1C423.82 248.072 422.47 249.449 421.444 251.231C420.472 253.013 419.986 255.173 419.986 257.711C419.986 260.195 420.472 262.355 421.444 264.191C422.47 265.973 423.82 267.35 425.494 268.322C427.168 269.294 429.058 269.78 431.164 269.78ZM523.364 235.274C526.82 235.274 529.871 235.976 532.517 237.38C535.217 238.73 537.323 240.836 538.835 243.698C540.401 246.506 541.184 250.124 541.184 254.552V279.5H528.548V256.496C528.548 252.986 527.819 250.394 526.361 248.72C524.903 247.046 522.851 246.209 520.205 246.209C518.369 246.209 516.722 246.641 515.264 247.505C513.806 248.315 512.672 249.557 511.862 251.231C511.052 252.905 510.647 255.038 510.647 257.63V279.5H498.011V256.496C498.011 252.986 497.282 250.394 495.824 248.72C494.42 247.046 492.395 246.209 489.749 246.209C487.913 246.209 486.266 246.641 484.808 247.505C483.35 248.315 482.216 249.557 481.406 251.231C480.596 252.905 480.191 255.038 480.191 257.63V279.5H467.555V235.922H479.624V247.829L477.356 244.346C478.868 241.376 481.001 239.135 483.755 237.623C486.563 236.057 489.749 235.274 493.313 235.274C497.309 235.274 500.792 236.3 503.762 238.352C506.786 240.35 508.784 243.428 509.756 247.586L505.301 246.371C506.759 242.969 509.081 240.269 512.267 238.271C515.507 236.273 519.206 235.274 523.364 235.274ZM582.319 280.148C578.647 280.148 575.434 279.338 572.68 277.718C569.926 276.098 567.766 273.641 566.2 270.347C564.688 266.999 563.932 262.787 563.932 257.711C563.932 252.581 564.661 248.369 566.119 245.075C567.577 241.781 569.683 239.324 572.437 237.704C575.191 236.084 578.485 235.274 582.319 235.274C586.423 235.274 590.095 236.219 593.335 238.109C596.629 239.945 599.221 242.537 601.111 245.885C603.055 249.233 604.027 253.175 604.027 257.711C604.027 262.301 603.055 266.27 601.111 269.618C599.221 272.966 596.629 275.558 593.335 277.394C590.095 279.23 586.423 280.148 582.319 280.148ZM556.561 295.214V235.922H568.63V244.832L568.387 257.792L569.197 270.671V295.214H556.561ZM580.132 269.78C582.238 269.78 584.101 269.294 585.721 268.322C587.395 267.35 588.718 265.973 589.69 264.191C590.716 262.355 591.229 260.195 591.229 257.711C591.229 255.173 590.716 253.013 589.69 251.231C588.718 249.449 587.395 248.072 585.721 247.1C584.101 246.128 582.238 245.642 580.132 245.642C578.026 245.642 576.136 246.128 574.462 247.1C572.788 248.072 571.465 249.449 570.493 251.231C569.521 253.013 569.035 255.173 569.035 257.711C569.035 260.195 569.521 262.355 570.493 264.191C571.465 265.973 572.788 267.35 574.462 268.322C576.136 269.294 578.026 269.78 580.132 269.78ZM616.535 279.5V235.922H628.604V248.234L626.903 244.67C628.199 241.592 630.278 239.27 633.14 237.704C636.002 236.084 639.485 235.274 643.589 235.274V246.938C643.049 246.884 642.563 246.857 642.131 246.857C641.699 246.803 641.24 246.776 640.754 246.776C637.298 246.776 634.49 247.775 632.33 249.773C630.224 251.717 629.171 254.768 629.171 258.926V279.5H616.535ZM679.035 279.5V270.995L678.225 269.132V253.904C678.225 251.204 677.388 249.098 675.714 247.586C674.094 246.074 671.583 245.318 668.181 245.318C665.859 245.318 663.564 245.696 661.296 246.452C659.082 247.154 657.192 248.126 655.626 249.368L651.09 240.539C653.466 238.865 656.328 237.569 659.676 236.651C663.024 235.733 666.426 235.274 669.882 235.274C676.524 235.274 681.681 236.84 685.353 239.972C689.025 243.104 690.861 247.991 690.861 254.633V279.5H679.035ZM665.751 280.148C662.349 280.148 659.433 279.581 657.003 278.447C654.573 277.259 652.71 275.666 651.414 273.668C650.118 271.67 649.47 269.429 649.47 266.945C649.47 264.353 650.091 262.085 651.333 260.141C652.629 258.197 654.654 256.685 657.408 255.605C660.162 254.471 663.753 253.904 668.181 253.904H679.764V261.275H669.558C666.588 261.275 664.536 261.761 663.402 262.733C662.322 263.705 661.782 264.92 661.782 266.378C661.782 267.998 662.403 269.294 663.645 270.266C664.941 271.184 666.696 271.643 668.91 271.643C671.016 271.643 672.906 271.157 674.58 270.185C676.254 269.159 677.469 267.674 678.225 265.73L680.169 271.562C679.251 274.37 677.577 276.503 675.147 277.961C672.717 279.419 669.585 280.148 665.751 280.148ZM734.373 280.472C729.999 280.472 725.922 279.77 722.142 278.366C718.416 276.908 715.176 274.856 712.422 272.21C709.668 269.564 707.508 266.459 705.942 262.895C704.43 259.331 703.674 255.416 703.674 251.15C703.674 246.884 704.43 242.969 705.942 239.405C707.508 235.841 709.668 232.736 712.422 230.09C715.23 227.444 718.497 225.419 722.223 224.015C725.949 222.557 730.026 221.828 734.454 221.828C739.368 221.828 743.796 222.692 747.738 224.42C751.734 226.094 755.082 228.578 757.782 231.872L749.358 239.648C747.414 237.434 745.254 235.787 742.878 234.707C740.502 233.573 737.91 233.006 735.102 233.006C732.456 233.006 730.026 233.438 727.812 234.302C725.598 235.166 723.681 236.408 722.061 238.028C720.441 239.648 719.172 241.565 718.254 243.779C717.39 245.993 716.958 248.45 716.958 251.15C716.958 253.85 717.39 256.307 718.254 258.521C719.172 260.735 720.441 262.652 722.061 264.272C723.681 265.892 725.598 267.134 727.812 267.998C730.026 268.862 732.456 269.294 735.102 269.294C737.91 269.294 740.502 268.754 742.878 267.674C745.254 266.54 747.414 264.839 749.358 262.571L757.782 270.347C755.082 273.641 751.734 276.152 747.738 277.88C743.796 279.608 739.341 280.472 734.373 280.472ZM770.694 279.5V222.8H795.237C800.313 222.8 804.687 223.637 808.359 225.311C812.031 226.931 814.866 229.28 816.864 232.358C818.862 235.436 819.861 239.108 819.861 243.374C819.861 247.586 818.862 251.231 816.864 254.309C814.866 257.333 812.031 259.655 808.359 261.275C804.687 262.895 800.313 263.705 795.237 263.705H777.984L783.816 257.954V279.5H770.694ZM806.739 279.5L792.564 258.926H806.577L820.914 279.5H806.739ZM783.816 259.412L777.984 253.256H794.508C798.558 253.256 801.582 252.392 803.58 250.664C805.578 248.882 806.577 246.452 806.577 243.374C806.577 240.242 805.578 237.812 803.58 236.084C801.582 234.356 798.558 233.492 794.508 233.492H777.984L783.816 227.255V259.412ZM834.307 279.5V222.8H845.161L869.299 262.814H863.548L887.281 222.8H898.054L898.216 279.5H885.904L885.823 241.673H888.091L869.137 273.506H863.224L843.865 241.673H846.619V279.5H834.307Z" fill="black"/>
</svg>
